<?xml version="1.0" standalone="no"?>
<!DOCTYPE svg PUBLIC "-//W3C//DTD SVG 20010904//EN"
 "http://www.w3.org/TR/2001/REC-SVG-20010904/DTD/svg10.dtd">
<svg version="1.0" xmlns="http://www.w3.org/2000/svg"
 width="634.000000pt" height="299.000000pt" viewBox="0 0 634.000000 299.000000"
 preserveAspectRatio="xMidYMid meet">

<g transform="translate(0.000000,299.000000) scale(0.100000,-0.100000)"
fill="#000000" stroke="none">
<path d="M2836 2357 c-17 -18 -41 -54 -54 -79 l-23 -46 -53 5 c-45 5 -57 2
-74 -15 -29 -29 -19 -60 24 -68 l34 -6 -30 -34 c-29 -34 -30 -37 -30 -139 0
-93 2 -106 21 -124 15 -13 23 -35 26 -67 2 -26 8 -53 14 -61 14 -17 120 -18
137 -1 7 7 12 34 12 60 l0 48 335 0 335 0 0 -48 c0 -26 5 -53 12 -60 16 -16
120 -16 136 0 7 7 12 33 12 59 0 38 5 51 23 64 19 13 22 26 26 102 4 96 -8
150 -39 178 -21 19 -21 19 12 29 39 13 51 52 22 73 -20 15 -82 17 -103 4 -11
-7 -24 6 -53 57 -63 108 -37 102 -387 102 l-304 0 -31 -33z m620 -35 c14 -9
98 -151 93 -157 -10 -10 -428 -17 -582 -10 -189 8 -183 4 -132 85 12 19 29 47
39 63 l16 27 278 0 c152 0 282 -4 288 -8z m-623 -277 c78 -12 107 -41 75 -73
-19 -19 -147 -16 -170 5 -37 33 -12 87 37 78 11 -2 37 -7 58 -10z m789 -9 c13
-18 9 -35 -12 -56 -16 -16 -33 -20 -84 -20 -80 0 -96 6 -96 35 0 26 31 42 106
54 52 8 74 4 86 -13z"/>
<path d="M2540 1593 c0 -35 13 -43 73 -43 36 0 74 -6 232 -36 17 -3 38 -10 48
-15 9 -6 21 -7 26 -4 5 3 11 0 13 -5 2 -6 24 -17 50 -24 l46 -14 0 34 c0 29
-3 34 -16 29 -9 -3 -13 -3 -9 1 8 9 -23 25 -88 46 -55 18 -171 45 -195 46 -8
0 -52 4 -97 8 l-83 7 0 -30z"/>
<path d="M3686 1611 c-3 -4 -17 -6 -32 -3 -34 6 -135 -18 -127 -31 3 -6 1 -7
-5 -3 -15 9 -83 -4 -77 -15 3 -4 -3 -6 -14 -4 -11 2 -43 -6 -71 -18 -46 -19
-50 -24 -50 -54 0 -18 5 -33 10 -33 6 0 10 5 10 11 0 5 4 8 9 5 11 -7 101 23
122 40 8 8 25 12 37 9 13 -2 20 0 17 4 -3 5 2 12 11 15 10 4 13 2 8 -6 -5 -8
0 -9 17 -5 13 4 62 12 109 18 162 21 150 17 150 49 0 30 0 30 -59 30 -33 0
-62 -4 -65 -9z"/>
<path d="M2350 1219 l0 -330 103 2 c126 3 204 -6 327 -38 52 -14 102 -26 110
-28 8 -2 17 -4 20 -5 3 -1 8 -2 13 -1 4 0 7 -4 7 -10 0 -6 6 -9 13 -7 6 3 21
-3 31 -13 19 -19 10 -19 -342 -19 l-362 0 0 310 0 310 -50 0 -51 0 3 -330 3
-330 28 -27 27 -28 375 -3 375 -3 19 -37 c40 -78 109 -118 192 -110 65 7 127
49 154 105 l20 42 362 1 c210 0 372 4 387 10 14 5 35 24 46 42 19 31 20 51 20
351 l0 317 -50 0 -50 0 -2 -307 -3 -308 -357 -3 c-337 -2 -400 2 -335 24 12 4
28 9 36 10 8 2 18 9 22 16 5 7 9 10 9 7 0 -7 174 36 192 47 13 8 40 9 221 12
l137 2 0 34 c0 19 -4 46 -10 61 -7 18 -7 24 1 20 7 -5 9 78 7 269 l-3 276 -42
0 -43 0 0 -279 c0 -317 8 -291 -93 -291 -76 0 -236 -27 -256 -43 -12 -9 -13
-9 -7 1 10 16 11 16 -80 -14 -75 -24 -153 -57 -218 -90 -16 -8 -30 -13 -33
-11 -2 2 -4 20 -5 40 -1 23 -5 34 -12 30 -6 -4 -5 0 2 9 17 21 17 592 0 582
-6 -4 -26 -7 -45 -6 -30 1 -33 -1 -33 -26 -1 -15 -2 -161 -4 -325 -2 -163 -5
-299 -8 -302 -2 -2 -33 10 -68 28 -86 44 -231 93 -300 102 -30 4 -64 10 -75
12 -11 3 -67 8 -124 10 -91 5 -107 8 -122 27 -15 17 -16 23 -5 31 11 8 14 63
13 263 l0 252 -44 0 -43 0 0 -331z m415 -319 c-4 -6 -1 -19 6 -28 11 -14 11
-15 0 -5 -7 6 -20 9 -27 6 -8 -3 -14 0 -14 7 0 6 4 9 9 6 5 -3 11 1 15 9 3 8
8 15 11 15 4 0 3 -5 0 -10z m885 -4 c0 -3 -4 -8 -10 -11 -5 -3 -10 -1 -10 4 0
6 5 11 10 11 6 0 10 -2 10 -4z m-530 -171 c8 5 11 4 7 -2 -4 -6 6 -16 21 -22
23 -10 34 -8 69 9 23 11 43 25 46 32 3 7 6 -2 6 -20 1 -48 -44 -92 -96 -92
-54 1 -83 26 -90 81 -5 40 -4 42 9 25 10 -12 20 -16 28 -11z"/>
<path d="M2540 1438 l0 -34 98 -12 c53 -7 113 -15 132 -18 19 -3 42 -5 50 -6
8 -1 18 -5 21 -10 4 -6 19 -11 35 -11 16 -1 31 -4 34 -7 6 -6 113 -50 122 -50
4 0 5 14 4 30 -2 33 -38 65 -61 56 -8 -3 -15 -2 -15 2 0 18 -179 70 -199 58
-5 -4 -12 -2 -16 4 -3 5 -11 10 -16 10 -6 0 -7 -5 -3 -11 3 -6 -5 -3 -20 6
-16 11 -54 20 -96 23 l-70 5 0 -35z"/>
<path d="M3660 1459 c-25 -6 -52 -13 -60 -16 -8 -3 -19 -5 -24 -4 -20 4 -148
-33 -153 -45 -2 -7 -11 -10 -19 -7 -8 3 -14 0 -14 -7 0 -6 -5 -8 -11 -5 -5 4
-23 1 -40 -5 -24 -10 -29 -18 -29 -46 0 -33 21 -47 35 -24 3 5 32 17 63 26 31
9 61 20 66 24 5 5 15 6 24 3 11 -5 13 -3 7 7 -5 8 -4 11 3 6 6 -3 43 0 82 8
40 9 105 18 146 22 l74 7 0 32 c0 31 0 32 -52 32 -29 1 -73 -3 -98 -8z"/>
<path d="M2544 1282 l1 -37 89 -9 c82 -8 90 -7 104 10 13 18 14 18 8 -2 -5
-18 -2 -23 21 -27 70 -14 171 -44 200 -60 47 -25 63 -22 63 12 0 33 -16 49
-33 32 -6 -6 -16 -11 -21 -11 -6 0 -4 5 4 10 13 9 13 11 0 20 -32 20 -169 59
-265 73 -188 30 -172 31 -171 -11z"/>
<path d="M3692 1305 c-46 -7 -91 -17 -100 -21 -9 -4 -21 -6 -26 -5 -14 3 -108
-20 -131 -32 -11 -6 -27 -11 -37 -12 -23 -2 -68 -33 -68 -48 0 -8 -4 -7 -10 3
-7 11 -10 7 -10 -17 0 -17 3 -34 8 -37 11 -6 74 22 68 32 -2 4 3 8 12 9 33 3
88 15 147 33 33 9 106 21 163 25 l102 7 0 39 c0 45 7 43 -118 24z"/>
<path d="M2551 1143 c8 -9 9 -14 3 -10 -8 4 -11 -1 -10 -17 1 -24 15 -27 189
-39 9 -1 17 -4 17 -8 0 -5 92 -30 130 -35 8 -1 41 -14 73 -28 32 -14 61 -26
66 -26 11 0 20 45 12 58 -10 15 -142 64 -156 58 -8 -3 -15 0 -17 5 -6 17 -120
41 -199 43 -43 0 -75 4 -72 9 2 4 -8 7 -23 7 -24 0 -25 -2 -13 -17z m384 -73
c3 -6 -1 -7 -9 -4 -18 7 -21 14 -7 14 6 0 13 -4 16 -10z"/>
<path d="M3720 1153 c-65 -6 -162 -24 -204 -38 -22 -7 -61 -19 -84 -25 -30 -8
-42 -16 -38 -25 3 -10 -2 -12 -20 -9 -40 7 -64 -12 -64 -51 0 -33 12 -46 24
-26 3 5 18 12 33 16 15 3 34 12 41 18 8 6 21 12 30 13 10 1 62 14 117 28 54
14 134 29 177 32 l78 7 0 32 c0 35 -4 36 -90 28z"/>
</g>
</svg>
